<?xml version="1.0" encoding="utf-8"?>
<!-- Generator: Adobe Illustrator 16.0.3, SVG Export Plug-In . SVG Version: 6.00 Build 0)  -->
<!DOCTYPE svg PUBLIC "-//W3C//DTD SVG 1.1//EN" "http://www.w3.org/Graphics/SVG/1.1/DTD/svg11.dtd">
<svg version="1.1" id="Layer_1" xmlns="http://www.w3.org/2000/svg" xmlns:xlink="http://www.w3.org/1999/xlink" x="0px" y="0px"
	 width="200px" height="200px" viewBox="0 0 200 200" enable-background="new 0 0 200 200" xml:space="preserve">
<g>
	<path fill="none" stroke="#737373" stroke-width="4" stroke-miterlimit="10" d="M134.193,85.552v70.019
		c0,4.375-3.547,7.923-7.922,7.923H72.864c-4.374,0-7.921-3.548-7.921-7.923V44.428c0-4.375,3.547-7.92,7.921-7.92h53.408
		c4.375,0,7.922,3.545,7.922,7.92v9.032"/>
	<polyline fill="none" stroke="#737373" stroke-width="2.2" stroke-miterlimit="10" points="125.855,85.552 125.855,144.273
		73.28,144.273 73.28,45.309 125.855,45.309 125.855,53.465 	"/>
	<circle fill="none" stroke="#737373" stroke-width="2.2" stroke-miterlimit="10" cx="99.303" cy="154.123" r="4.887"/>
	<g>
		<path fill="#737373" d="M147.548,59.555h-4.057c1.278,1.12,2.346,2.475,3.131,4h0.926c3.588,0,6.509,2.521,6.509,5.62
			c0,3.099-2.921,5.62-6.509,5.62h-10.985c-3.183,0.029-8.136-3.174-5.99-8.596h-4.08c-0.877,3.906-0.205,6.969,2.27,9.414
			c1.949,1.926,4.707,3.182,7.801,3.182h10.986c5.795,0,10.508-4.315,10.508-9.62C158.057,63.87,153.343,59.555,147.548,59.555z"/>
		<path fill="#737373" d="M126.827,77.568c-0.438-0.434-0.826-0.889-1.183-1.355h-2.021c-3.588,0-6.506-2.92-6.506-6.507
			c0-3.588,2.918-6.507,6.506-6.507h10.987c3.589,0,6.507,2.919,6.507,6.507c0,0.519-0.119,1.359-0.302,2.208h4.072
			c0.137-0.781,0.229-1.564,0.229-2.208c0-5.794-4.713-10.507-10.507-10.507h-10.987c-5.793,0-10.506,4.713-10.506,10.507
			s4.713,10.507,10.506,10.507h7.008C129.238,79.556,127.95,78.678,126.827,77.568z"/>
	</g>
	<line fill="none" stroke="#737373" stroke-width="2.2" stroke-miterlimit="10" x1="81.45" y1="87.256" x2="116.766" y2="87.256"/>
	<line fill="none" stroke="#737373" stroke-width="2.2" stroke-miterlimit="10" x1="81.45" y1="96.342" x2="116.766" y2="96.342"/>
	
		<line fill="none" stroke="#737373" stroke-width="2.2" stroke-miterlimit="10" x1="125.491" y1="127.697" x2="74.014" y2="127.697"/>
</g>
</svg>
