<?xml version="1.0" encoding="utf-8"?>
<!-- Generator: Adobe Illustrator 16.0.3, SVG Export Plug-In . SVG Version: 6.00 Build 0)  -->
<!DOCTYPE svg PUBLIC "-//W3C//DTD SVG 1.1//EN" "http://www.w3.org/Graphics/SVG/1.1/DTD/svg11.dtd">
<svg version="1.1" id="Layer_1" xmlns="http://www.w3.org/2000/svg" xmlns:xlink="http://www.w3.org/1999/xlink" x="0px" y="0px"
	 width="200px" height="200px" viewBox="0 0 200 200" enable-background="new 0 0 200 200" xml:space="preserve">
<g>
	<g>
		<g>
			<path fill="#737373" d="M115.051,48.53c3.103,0,6.614,1.612,8.567,9.978c0.018,0.104,1.392,10.327-7.809,17.311
				c-1.404,1.397-4.734,5.225-3,8.145c1.418,2.386,2.571,2.604,4.379,2.604c0.404,0,0.841-0.011,1.32-0.011
				c0.464,0,0.969-0.021,1.396-0.061l18.217,0.478c0.505,0,12.371,0.118,12.678,8.396c0.006,0.071,0.253,7.079-4.059,8.689
				c-0.349,0.133-0.61,0.438-0.685,0.809c-0.079,0.369,0.042,0.75,0.313,1.01c0.041,0.041,4.232,4.125,3.943,8.541
				c-0.143,2.166-1.373,4.117-3.656,5.793c-0.457,0.336-0.581,0.969-0.284,1.453c0.032,0.053,3.296,5.467,1.736,9.625
				c-0.714,1.912-2.401,3.297-5.019,4.125c-0.321,0.104-0.578,0.352-0.694,0.672c-0.118,0.316-0.079,0.678,0.104,0.961
				c0.063,0.102,1.536,2.486,0.363,5.352c-1.022,2.488-4.349,5.951-14.245,8.277c-0.104,0.01-10.593,0.793-21.559,0.793
				c-21.902,0-24.852-6.256-31.807-6.752c-1.02,0.119-2.061,0.18-3.094,0.18H64.98c-8.701,0-15.784-4.141-15.784-9.23v-35.369
				c0-5.093,7.083-9.234,15.784-9.234h7.178c2.116,0,4.172,0.25,6.117,0.739c0.093,0.025,0.187,0.037,0.279,0.037
				c0.338,0,0.66-0.162,0.868-0.442c6.748-9.048,11.739-13.83,15.846-16.191c3.973-2.284,11.573-9.241,12.941-13.012
				s1.19-11.05,3.421-12.844C112.651,48.53,113.888,48.53,115.051,48.53 M115.051,44.53c-1.424,0-3.808,0-5.928,1.704
				c-2.578,2.074-3.143,5.867-3.739,9.883c-0.264,1.779-0.537,3.619-0.935,4.714c-0.865,2.382-7.34,8.703-11.175,10.908
				c-4.709,2.708-9.797,7.741-15.933,15.776c-1.684-0.3-3.42-0.451-5.183-0.451H64.98c-11.094,0-19.784,5.813-19.784,13.234v35.369
				c0,7.419,8.69,13.23,19.784,13.23h7.178c1.044,0,2.096-0.054,3.133-0.16c1.542,0.173,2.931,0.783,4.965,1.677
				c4.859,2.134,11.514,5.056,26.803,5.056c11.3,0,21.849-0.803,21.935-0.811c0.182-0.018,0.361-0.047,0.539-0.089
				c9.294-2.185,15.023-5.768,17.03-10.65c0.847-2.07,0.888-4.135,0.531-5.88c2.812-1.567,4.139-3.681,4.762-5.351
				c1.501-4.002,0.19-8.318-0.932-10.882c2.526-2.549,3.253-5.202,3.38-7.126c0.236-3.612-1.394-6.829-2.904-8.989
				c3.454-3.549,3.433-9.369,3.395-10.47h0.002c-0.189-5.114-3.368-8.998-8.95-10.934c-3.539-1.228-7.037-1.31-7.662-1.314
				l-18.175-0.476c-0.034-0.001-0.069-0.001-0.104-0.001c-0.124,0-0.249,0.006-0.373,0.018c-0.292,0.027-0.674,0.043-1.023,0.043
				c-0.268,0-0.522,0.003-0.766,0.006c-0.192,0.002-0.377,0.004-0.555,0.004c-0.246,0-0.406-0.005-0.509-0.012
				c-0.076-0.092-0.194-0.249-0.352-0.503c0.076-0.487,0.717-1.77,2.134-3.228c9.169-7.127,9.684-17.546,9.1-20.986
				c-0.014-0.081-0.029-0.161-0.048-0.24C125.489,48.927,121.296,44.53,115.051,44.53L115.051,44.53z"/>
		</g>
	</g>
</g>
</svg>
