<?xml version="1.0" encoding="utf-8"?>
<!-- Generator: Adobe Illustrator 16.0.3, SVG Export Plug-In . SVG Version: 6.00 Build 0)  -->
<!DOCTYPE svg PUBLIC "-//W3C//DTD SVG 1.1//EN" "http://www.w3.org/Graphics/SVG/1.1/DTD/svg11.dtd">
<svg version="1.1" id="Layer_1" xmlns="http://www.w3.org/2000/svg" xmlns:xlink="http://www.w3.org/1999/xlink" x="0px" y="0px"
	 width="117.037px" height="117.039px" viewBox="0 0 117.037 117.039" enable-background="new 0 0 117.037 117.039"
	 xml:space="preserve">
<path fill="none" stroke="#737373" stroke-width="4" stroke-linecap="round" stroke-linejoin="round" stroke-miterlimit="10" d="
	M65.638,112.371c-14.427-0.832-29.221-6.627-32.031-6.82c-0.908,0.127-2.046,0.193-3.174,0.193H23.19
	c-11.167,0-18.128-4.347-18.128-11.521V58.547c0-7.678,6.783-11.524,18.128-11.524h7.242c3.994,0,5.992,0.643,5.992,0.643
	s7.215-11.442,16.497-16.477C59.54,27.6,63.716,22.447,64.854,19.06c0.192-0.575,0.459-1.597,0.41-2.685
	c-0.186-4.033-0.06-10.668,4.644-11.402c1.169-0.186,2.548-0.404,3.899-0.257c5.559,0.602,10.346,6.617,10.701,11.267
	c0.361,4.722,0.068,13.157-8.602,19.534c-1.596,1.174-3.08,3.072-2.645,4.455c0.437,1.383,2.616,2.657,5.272,2.447
	c0,0,10.978,0.007,18.465,0.477s14.651,2.216,14.967,10.591c0.015,0.316,0.274,7.32-4.122,10.214
	c1.448,1.731,3.881,5.264,3.627,9.225c-0.168,2.604-1.449,4.918-3.818,6.891c0.984,1.92,3,6.652,1.465,10.764
	c-0.852,2.277-2.625,3.977-5.279,5.066c0.506,1.328,1.006,3.604-0.023,6.16c-1.765,4.373-10.641,8.131-15.666,9.234
	C83.397,112.083,79.231,113.153,65.638,112.371z"/>
</svg>
