<?xml version="1.0" encoding="utf-8"?>
<!-- Generator: Adobe Illustrator 16.0.3, SVG Export Plug-In . SVG Version: 6.00 Build 0)  -->
<!DOCTYPE svg PUBLIC "-//W3C//DTD SVG 1.1//EN" "http://www.w3.org/Graphics/SVG/1.1/DTD/svg11.dtd">
<svg version="1.1" id="Layer_1" xmlns="http://www.w3.org/2000/svg" xmlns:xlink="http://www.w3.org/1999/xlink" x="0px" y="0px"
	 width="128px" height="128px" viewBox="0 0 128 128" enable-background="new 0 0 128 128" xml:space="preserve">
<g>
	<path d="M65.646,57.721c1.61,0.293,1.885,0.768,2.564,1.379l23.582-13.56c-0.09-0.44-0.095-0.907-0.095-1.375
		c0-0.463,0.079-0.923,0.174-1.368L68.203,29.236c-0.686,0.61-0.947,1.085-2.558,1.371V57.721z"/>
	<path d="M61.61,70.275c-0.805-0.289-1.516-0.766-2.199-1.377l-23.389,13.56c0.093,0.438,0.19,0.9,0.19,1.371
		c0,0.472-0.029,0.93-0.123,1.379l23.315,13.551c0.68-0.614,1.401-1.085,2.206-1.377V70.275z"/>
	<path d="M57.399,64c0-0.476,0.052-0.931,0.145-1.37l-23.442-13.56c-0.68,0.607-1.53,1.085-2.333,1.375v27.114
		c0.803,0.29,1.653,0.76,2.331,1.374l23.462-13.56C57.464,64.927,57.399,64.475,57.399,64"/>
	<path d="M59.415,59.1c0.682-0.611,1.389-1.086,2.197-1.379v-27.11c-0.809-0.29-1.516-0.765-2.2-1.375L36.024,42.797
		c0.091,0.445,0.19,0.896,0.19,1.368c0,0.478-0.12,0.935-0.216,1.375L59.415,59.1z"/>
	<path d="M91.77,82.458l-23.553-13.56c-0.683,0.611-0.961,1.088-2.571,1.377v27.106c1.61,0.288,1.885,0.763,2.561,1.377
		l23.586-13.555c-0.085-0.445-0.095-0.903-0.095-1.375C91.697,83.358,91.674,82.896,91.77,82.458"/>
	<path d="M96.292,50.444c-0.804-0.29-1.684-0.768-2.361-1.383L70.457,62.629c0.091,0.439,0.15,0.895,0.15,1.37
		s-0.054,0.927-0.15,1.374l23.474,13.56c0.678-0.618,1.558-1.084,2.361-1.374V50.444z"/>
	<path d="M104.928,83.829c0,3.642-2.954,6.604-6.596,6.604c-1.69,0-3.231-0.65-4.401-1.698l-23.482,13.55
		c0.105,0.439,0.159,0.9,0.159,1.371c0,3.646-2.969,6.607-6.611,6.607c-3.638,0-6.6-2.962-6.6-6.607c0-0.471,0.05-0.932,0.144-1.371
		l-23.478-13.55c-1.172,1.048-2.715,1.698-4.411,1.698c-3.64,0-6.54-2.962-6.54-6.604c0-2.926,2.201-5.415,4.621-6.278V50.444
		c-2.42-0.855-4.621-3.344-4.621-6.279c0-3.64,2.928-6.609,6.569-6.609c1.699,0,3.229,0.651,4.398,1.711l23.472-13.549
		c-0.094-0.452-0.152-0.907-0.152-1.383c0-3.636,2.963-6.607,6.598-6.607c3.645,0,6.617,2.971,6.617,6.607
		c0,0.476-0.06,0.936-0.156,1.383L93.936,39.27c1.173-1.062,2.713-1.713,4.413-1.713c3.641,0,6.579,2.969,6.579,6.609
		c0,2.935-2.183,5.423-4.603,6.279v27.106C102.745,78.414,104.928,80.903,104.928,83.829 M63.997,2.973
		c-33.698,0-61.023,27.314-61.023,61.023c0,33.709,27.325,61.032,61.023,61.032c33.705,0,61.03-27.322,61.03-61.032
		C125.026,30.287,97.701,2.973,63.997,2.973"/>
	<path d="M63.997,27.647c1.833,0,3.316-1.481,3.316-3.312s-1.482-3.307-3.316-3.307c-1.827,0-3.309,1.477-3.309,3.307
		S62.17,27.647,63.997,27.647"/>
	<path d="M60.688,64c0,1.826,1.485,3.313,3.309,3.313c1.833,0,3.316-1.487,3.316-3.313c0-1.831-1.482-3.308-3.316-3.308
		C62.173,60.692,60.688,62.169,60.688,64"/>
	<path d="M63.997,100.355c-1.827,0-3.309,1.475-3.309,3.3c0,1.831,1.482,3.312,3.309,3.312c1.833,0,3.316-1.48,3.316-3.312
		C67.312,101.83,65.83,100.355,63.997,100.355"/>
	<path d="M95.041,83.829c0,1.827,1.48,3.316,3.308,3.316c1.826,0,3.308-1.489,3.308-3.316c0-1.825-1.481-3.308-3.308-3.308
		C96.521,80.521,95.041,82.004,95.041,83.829"/>
	<path d="M101.656,44.166c0-1.819-1.481-3.309-3.308-3.309c-1.827,0-3.308,1.49-3.308,3.309c0,1.826,1.48,3.308,3.308,3.308
		C100.175,47.473,101.656,45.991,101.656,44.166"/>
	<path d="M29.652,80.521c-1.828,0-3.311,1.482-3.311,3.308c0,1.831,1.483,3.316,3.311,3.316c1.828,0,3.312-1.485,3.312-3.316
		C32.964,82.004,31.48,80.521,29.652,80.521"/>
	<path d="M32.962,44.166c0-1.819-1.477-3.309-3.312-3.309c-1.825,0-3.309,1.49-3.309,3.309c0,1.826,1.483,3.308,3.309,3.308
		C31.485,47.473,32.962,45.991,32.962,44.166"/>
</g>
</svg>
