<?xml version="1.0" encoding="utf-8"?>
<!-- Generator: Adobe Illustrator 16.0.3, SVG Export Plug-In . SVG Version: 6.00 Build 0)  -->
<!DOCTYPE svg PUBLIC "-//W3C//DTD SVG 1.1//EN" "http://www.w3.org/Graphics/SVG/1.1/DTD/svg11.dtd">
<svg version="1.1" id="Layer_1" xmlns="http://www.w3.org/2000/svg" xmlns:xlink="http://www.w3.org/1999/xlink" x="0px" y="0px"
	 width="128px" height="128px" viewBox="0 0 128 128" enable-background="new 0 0 128 128" xml:space="preserve">
<g>
	<path fill="#FFFFFF" d="M65.645,57.722c1.611,0.294,1.885,0.769,2.566,1.379l23.581-13.559c-0.091-0.44-0.096-0.908-0.096-1.375
		c0-0.463,0.08-0.923,0.175-1.366L68.203,29.237c-0.684,0.61-0.947,1.085-2.559,1.371V57.722z"/>
	<path fill="#FFFFFF" d="M61.609,70.275c-0.804-0.289-1.515-0.765-2.198-1.375L36.022,82.458c0.093,0.443,0.19,0.903,0.19,1.37
		c0,0.476-0.029,0.936-0.123,1.379l23.315,13.555c0.68-0.617,1.4-1.085,2.205-1.378V70.275z"/>
	<path fill="#FFFFFF" d="M57.399,64.001c0-0.476,0.051-0.931,0.145-1.371l-23.443-13.56c-0.679,0.606-1.529,1.086-2.333,1.375V77.56
		c0.804,0.29,1.654,0.761,2.331,1.373l23.462-13.558C57.464,64.928,57.399,64.476,57.399,64.001"/>
	<path fill="#FFFFFF" d="M59.415,59.101c0.682-0.61,1.389-1.085,2.197-1.379V30.612c-0.809-0.29-1.516-0.765-2.199-1.375
		L36.022,42.801c0.093,0.443,0.192,0.895,0.192,1.366c0,0.479-0.121,0.935-0.216,1.375L59.415,59.101z"/>
	<path fill="#FFFFFF" d="M91.769,82.458L68.214,68.9c-0.683,0.61-0.958,1.086-2.569,1.375v27.108
		c1.611,0.285,1.885,0.761,2.562,1.378l23.585-13.555c-0.087-0.443-0.096-0.903-0.096-1.379
		C91.696,83.361,91.673,82.901,91.769,82.458"/>
	<path fill="#FFFFFF" d="M96.292,50.446c-0.805-0.289-1.684-0.769-2.361-1.383L70.457,62.63c0.091,0.44,0.15,0.895,0.15,1.371
		c0,0.475-0.056,0.927-0.15,1.374l23.474,13.558c0.678-0.617,1.557-1.083,2.361-1.373V50.446z"/>
	<path fill="#FFFFFF" d="M104.928,83.828c0,3.644-2.956,6.607-6.596,6.607c-1.691,0-3.232-0.649-4.401-1.703l-23.482,13.556
		c0.104,0.435,0.159,0.896,0.159,1.37c0,3.645-2.971,6.607-6.614,6.607c-3.636,0-6.597-2.963-6.597-6.607
		c0-0.475,0.049-0.936,0.144-1.37L34.063,88.732c-1.172,1.054-2.715,1.703-4.411,1.703c-3.64,0-6.54-2.964-6.54-6.607
		c0-2.923,2.201-5.412,4.621-6.276V50.446c-2.42-0.855-4.621-3.344-4.621-6.279c0-3.64,2.927-6.607,6.568-6.607
		c1.697,0,3.23,0.649,4.398,1.712L57.551,25.72c-0.095-0.452-0.152-0.908-0.152-1.383c0-3.636,2.961-6.606,6.595-6.606
		c3.647,0,6.617,2.97,6.617,6.606c0,0.476-0.059,0.935-0.153,1.383l23.478,13.551c1.173-1.062,2.713-1.712,4.413-1.712
		c3.641,0,6.58,2.967,6.58,6.607c0,2.936-2.184,5.424-4.604,6.279v27.106C102.744,78.416,104.928,80.905,104.928,83.828
		 M63.994,2.975c-33.695,0-61.02,27.316-61.02,61.022c0,33.711,27.325,61.028,61.02,61.028c33.708,0,61.033-27.317,61.033-61.028
		C125.026,30.291,97.702,2.975,63.994,2.975"/>
	<path fill="#FFFFFF" d="M63.994,27.649c1.836,0,3.32-1.482,3.32-3.312s-1.483-3.308-3.32-3.308c-1.824,0-3.307,1.478-3.307,3.308
		S62.17,27.649,63.994,27.649"/>
	<path fill="#FFFFFF" d="M60.687,64.001c0,1.826,1.485,3.312,3.307,3.312c1.836,0,3.32-1.485,3.32-3.312
		c0-1.83-1.483-3.308-3.32-3.308C62.172,60.693,60.687,62.171,60.687,64.001"/>
	<path fill="#FFFFFF" d="M63.994,100.354c-1.824,0-3.307,1.474-3.307,3.304s1.483,3.312,3.307,3.312c1.836,0,3.32-1.481,3.32-3.312
		S65.83,100.354,63.994,100.354"/>
	<path fill="#FFFFFF" d="M95.04,83.828c0,1.83,1.481,3.319,3.308,3.319c1.825,0,3.308-1.489,3.308-3.319
		c0-1.821-1.482-3.304-3.308-3.304C96.521,80.524,95.04,82.007,95.04,83.828"/>
	<path fill="#FFFFFF" d="M101.655,44.167c0-1.818-1.482-3.307-3.308-3.307c-1.826,0-3.308,1.489-3.308,3.307
		c0,1.827,1.481,3.308,3.308,3.308C100.173,47.475,101.655,45.994,101.655,44.167"/>
	<path fill="#FFFFFF" d="M29.652,80.524c-1.828,0-3.312,1.482-3.312,3.304c0,1.83,1.483,3.319,3.312,3.319s3.312-1.489,3.312-3.319
		C32.964,82.007,31.48,80.524,29.652,80.524"/>
	<path fill="#FFFFFF" d="M32.962,44.167c0-1.818-1.478-3.307-3.312-3.307c-1.826,0-3.31,1.489-3.31,3.307
		c0,1.827,1.483,3.308,3.31,3.308C31.484,47.475,32.962,45.994,32.962,44.167"/>
</g>
</svg>
