<?xml version="1.0" encoding="utf-8"?>
<!-- Generator: Adobe Illustrator 16.0.3, SVG Export Plug-In . SVG Version: 6.00 Build 0)  -->
<!DOCTYPE svg PUBLIC "-//W3C//DTD SVG 1.1//EN" "http://www.w3.org/Graphics/SVG/1.1/DTD/svg11.dtd">
<svg version="1.1" id="Layer_1" xmlns="http://www.w3.org/2000/svg" xmlns:xlink="http://www.w3.org/1999/xlink" x="0px" y="0px"
	 width="200px" height="200px" viewBox="0 0 200 200" enable-background="new 0 0 200 200" xml:space="preserve">
<g>
	<g>
		<path fill="none" stroke="#737373" stroke-width="4" stroke-miterlimit="10" d="M132.842,52.108h-5.148v3.893
			c0,2.909-2.359,5.269-5.271,5.269c-2.907,0-5.269-2.359-5.269-5.269v-3.893h-11.887v3.893c0,2.909-2.358,5.269-5.27,5.269
			s-5.269-2.359-5.269-5.269v-3.893H82.843v3.893c0,2.909-2.357,5.269-5.268,5.269c-2.911,0-5.269-2.359-5.269-5.269v-3.893h-5.147
			c-3.986,0-7.217,3.23-7.217,7.216v90.513c0,3.983,3.23,7.218,7.217,7.218h65.683c3.985,0,7.217-3.232,7.217-7.218V59.324
			C140.059,55.339,136.827,52.108,132.842,52.108z"/>
		<path fill="none" stroke="#737373" stroke-width="4" stroke-miterlimit="10" d="M127.691,52.108v-3.894
			c0-2.91-2.358-5.269-5.27-5.269c-2.908,0-5.268,2.358-5.268,5.269v3.894"/>
		<path fill="none" stroke="#737373" stroke-width="4" stroke-miterlimit="10" d="M105.268,52.108v-3.894
			c0-2.91-2.357-5.269-5.269-5.269s-5.269,2.358-5.269,5.269v3.894"/>
		<path fill="none" stroke="#737373" stroke-width="4" stroke-miterlimit="10" d="M82.843,52.108v-3.894
			c0-2.91-2.357-5.269-5.268-5.269c-2.911,0-5.269,2.358-5.269,5.269v3.894"/>
	</g>
	<line fill="none" stroke="#737373" stroke-width="2.2" stroke-miterlimit="10" x1="84.594" y1="80.688" x2="128.665" y2="80.688"/>
	<line fill="none" stroke="#737373" stroke-width="2.2" stroke-miterlimit="10" x1="71.646" y1="80.688" x2="76.495" y2="80.688"/>
	<line fill="none" stroke="#737373" stroke-width="2.2" stroke-miterlimit="10" x1="84.594" y1="93.887" x2="128.665" y2="93.887"/>
	<line fill="none" stroke="#737373" stroke-width="2.2" stroke-miterlimit="10" x1="71.646" y1="93.887" x2="76.495" y2="93.887"/>
	
		<line fill="none" stroke="#737373" stroke-width="2.2" stroke-miterlimit="10" x1="84.594" y1="107.085" x2="128.665" y2="107.085"/>
	
		<line fill="none" stroke="#737373" stroke-width="2.2" stroke-miterlimit="10" x1="71.646" y1="107.085" x2="76.495" y2="107.085"/>
	
		<line fill="none" stroke="#737373" stroke-width="2.2" stroke-miterlimit="10" x1="84.594" y1="120.284" x2="128.665" y2="120.284"/>
	
		<line fill="none" stroke="#737373" stroke-width="2.2" stroke-miterlimit="10" x1="71.646" y1="120.284" x2="76.495" y2="120.284"/>
	
		<line fill="none" stroke="#737373" stroke-width="2.2" stroke-miterlimit="10" x1="84.594" y1="133.482" x2="128.665" y2="133.482"/>
	
		<line fill="none" stroke="#737373" stroke-width="2.2" stroke-miterlimit="10" x1="71.646" y1="133.482" x2="76.495" y2="133.482"/>
</g>
</svg>
