<?xml version="1.0" encoding="utf-8"?>
<!-- Generator: Adobe Illustrator 16.0.3, SVG Export Plug-In . SVG Version: 6.00 Build 0)  -->
<!DOCTYPE svg PUBLIC "-//W3C//DTD SVG 1.1//EN" "http://www.w3.org/Graphics/SVG/1.1/DTD/svg11.dtd">
<svg version="1.1" id="Layer_1" xmlns="http://www.w3.org/2000/svg" xmlns:xlink="http://www.w3.org/1999/xlink" x="0px" y="0px"
	 width="127.5px" height="163.5px" viewBox="0 0 127.5 163.5" enable-background="new 0 0 127.5 163.5" xml:space="preserve">
<g>
	<path d="M79.523,147.242H26.114c-5.47,0-9.921-4.451-9.921-9.922V26.178c0-5.471,4.451-9.92,9.921-9.92h53.409
		c5.47,0,9.921,4.449,9.921,9.92v9.033h-4v-9.033c0-3.266-2.656-5.92-5.921-5.92H26.114c-3.265,0-5.921,2.654-5.921,5.92V137.32
		c0,3.266,2.656,5.922,5.921,5.922h53.409c3.265,0,5.921-2.656,5.921-5.922V67.303h4v70.018
		C89.444,142.791,84.993,147.242,79.523,147.242z"/>
	<polygon points="80.207,127.123 25.43,127.123 25.43,25.959 80.207,25.959 80.207,35.215 78.007,35.215 78.007,28.158 
		27.63,28.158 27.63,124.924 78.007,124.924 78.007,67.303 80.207,67.303 	"/>
	<path d="M52.553,141.857c-3.301,0-5.986-2.684-5.986-5.984s2.686-5.986,5.986-5.986s5.986,2.686,5.986,5.986
		S55.854,141.857,52.553,141.857z M52.553,132.086c-2.088,0-3.786,1.699-3.786,3.787s1.698,3.785,3.786,3.785
		s3.786-1.697,3.786-3.785S54.641,132.086,52.553,132.086z"/>
	<g>
		<path d="M100.799,41.305h-4.057c1.279,1.121,2.346,2.475,3.131,4h0.926c3.588,0,6.508,2.521,6.508,5.621
			c0,3.098-2.92,5.619-6.508,5.619H89.812c-3.182,0.029-8.135-3.174-5.99-8.596h-4.08c-0.877,3.906-0.205,6.969,2.27,9.414
			c1.949,1.926,4.707,3.182,7.801,3.182h10.986c5.795,0,10.508-4.314,10.508-9.619S106.594,41.305,100.799,41.305z"/>
		<path d="M80.078,59.318c-0.439-0.434-0.826-0.889-1.182-1.355h-2.021c-3.588,0-6.506-2.92-6.506-6.506
			c0-3.588,2.918-6.508,6.506-6.508h10.988c3.588,0,6.506,2.92,6.506,6.508c0,0.518-0.119,1.359-0.301,2.207h4.072
			c0.137-0.781,0.229-1.564,0.229-2.207c0-5.795-4.713-10.508-10.506-10.508H76.875c-5.793,0-10.506,4.713-10.506,10.508
			c0,5.793,4.713,10.506,10.506,10.506h7.008C82.49,61.307,81.201,60.428,80.078,59.318z"/>
	</g>
	<rect x="34.7" y="67.906" width="35.315" height="2.199"/>
	<rect x="34.7" y="76.992" width="35.315" height="2.199"/>
</g>
</svg>
