<?xml version="1.0" encoding="utf-8"?>
<!-- Generator: Adobe Illustrator 16.0.3, SVG Export Plug-In . SVG Version: 6.00 Build 0)  -->
<!DOCTYPE svg PUBLIC "-//W3C//DTD SVG 1.1//EN" "http://www.w3.org/Graphics/SVG/1.1/DTD/svg11.dtd">
<svg version="1.1" id="Layer_1" xmlns="http://www.w3.org/2000/svg" xmlns:xlink="http://www.w3.org/1999/xlink" x="0px" y="0px"
	 width="222px" height="122px" viewBox="0 0 222 122" enable-background="new 0 0 222 122" xml:space="preserve">
<g>
	<path d="M192.066,96.171H100.91c-4.756,0-10.426-1.938-10.426-11.17c0-0.723-0.018-1.865-0.018-1.869l4-0.061
		c0,0,0.018,1.184,0.018,1.93c0,5.092,1.861,7.17,6.426,7.17h91.156c3.266,0,5.922-2.658,5.922-5.924V66.013
		c0-5.18-1.992-7.805-5.922-7.805H161.26v-4h30.807c6.213,0,9.922,4.412,9.922,11.805v20.234
		C201.988,91.718,197.537,96.171,192.066,96.171z"/>
	<path d="M42.879,69.976c-5.266,0-9.549-4.283-9.549-9.549s4.283-9.549,9.549-9.549s9.549,4.283,9.549,9.549
		S48.145,69.976,42.879,69.976z M42.879,54.878c-3.059,0-5.549,2.488-5.549,5.549c0,3.059,2.49,5.549,5.549,5.549
		c3.061,0,5.549-2.49,5.549-5.549C48.428,57.366,45.939,54.878,42.879,54.878z"/>
	<path d="M54.607,29.829c13.203,0,24.453,8.363,28.742,20.08h33.766v-8.881c0-2.453,1.988-4.441,4.441-4.441
		s4.441,1.988,4.441,4.441v8.881h10.047V44.94c0-2.453,1.988-4.441,4.441-4.441s4.441,1.988,4.441,4.441v5.82
		c3.748,1.607,6.373,5.33,6.373,9.666c0,5.809-4.709,8.316-10.518,8.316H83.35c-1.891,12.99-15.539,22.281-28.742,22.281
		c-16.898,0-30.596-13.699-30.596-30.598S37.709,29.829,54.607,29.829 M54.607,25.829c-19.076,0-34.596,15.52-34.596,34.598
		s15.52,34.598,34.596,34.598c7.322,0,14.979-2.574,21.004-7.061c5.451-4.061,9.252-9.373,10.953-15.221h54.219
		c8.82,0,14.518-4.834,14.518-12.316c0-4.879-2.432-9.352-6.373-12.02V44.94c0-4.654-3.787-8.441-8.441-8.441
		s-8.441,3.787-8.441,8.441v0.969h-2.047v-4.881c0-4.654-3.787-8.441-8.441-8.441s-8.441,3.787-8.441,8.441v4.881H86.02
		C80.408,33.79,68.123,25.829,54.607,25.829L54.607,25.829z"/>
	<g>
		<path stroke="#737373" stroke-width="4" stroke-miterlimit="10" d="M157.547,71.151"/>
		<rect x="161.36" y="68.744" transform="matrix(0.7071 0.7071 -0.7071 0.7071 102.2692 -92.97)" width="4" height="16.442"/>
		<rect x="155.139" y="74.965" transform="matrix(0.707 0.7072 -0.7072 0.707 102.2835 -92.9752)" width="16.442" height="4"/>
	</g>
	<g>
		<path stroke="#737373" stroke-width="4" stroke-miterlimit="10" d="M179.699,71.151"/>
		<rect x="183.512" y="68.744" transform="matrix(0.7071 0.7071 -0.7071 0.7071 108.7575 -108.6341)" width="4" height="16.442"/>
		<rect x="177.289" y="74.965" transform="matrix(0.7071 0.7071 -0.7071 0.7071 108.7572 -108.6334)" width="16.443" height="4"/>
	</g>
</g>
</svg>
