<?xml version="1.0" encoding="utf-8"?>
<!-- Generator: Adobe Illustrator 16.0.3, SVG Export Plug-In . SVG Version: 6.00 Build 0)  -->
<!DOCTYPE svg PUBLIC "-//W3C//DTD SVG 1.1//EN" "http://www.w3.org/Graphics/SVG/1.1/DTD/svg11.dtd">
<svg version="1.1" id="Layer_1" xmlns="http://www.w3.org/2000/svg" xmlns:xlink="http://www.w3.org/1999/xlink" x="0px" y="0px"
	 width="154px" height="162px" viewBox="0 0 154 162" enable-background="new 0 0 154 162" xml:space="preserve">
<g>
	<path d="M92.052,29.53c3.102,0,6.613,1.613,8.566,9.979c0.018,0.104,1.393,10.326-7.809,17.311c-1.404,1.398-4.734,5.227-3,8.145
		c1.417,2.387,2.572,2.604,4.378,2.604c0.404,0,0.842-0.01,1.32-0.01c0.465,0,0.969-0.021,1.396-0.061l18.217,0.477
		c0.506,0,12.371,0.119,12.678,8.396c0.006,0.072,0.254,7.08-4.059,8.691c-0.348,0.131-0.609,0.438-0.684,0.807
		c-0.08,0.369,0.041,0.75,0.312,1.01c0.041,0.041,4.232,4.125,3.943,8.541c-0.143,2.166-1.373,4.117-3.656,5.793
		c-0.457,0.336-0.58,0.969-0.283,1.453c0.031,0.053,3.295,5.469,1.736,9.625c-0.715,1.912-2.402,3.297-5.02,4.125
		c-0.32,0.104-0.578,0.352-0.693,0.672c-0.119,0.316-0.08,0.678,0.104,0.961c0.062,0.102,1.535,2.486,0.363,5.352
		c-1.023,2.488-4.35,5.951-14.246,8.277c-0.104,0.01-10.592,0.793-21.558,0.793c-21.9,0-24.852-6.256-31.807-6.752
		c-1.02,0.119-2.061,0.18-3.094,0.18h-7.178c-8.701,0-15.785-4.141-15.785-9.23V81.3c0-5.094,7.084-9.234,15.785-9.234h7.178
		c2.117,0,4.172,0.25,6.117,0.738c0.094,0.025,0.188,0.037,0.279,0.037c0.338,0,0.66-0.16,0.867-0.441
		c6.748-9.049,11.826-14.361,15.846-16.191c4.02-1.828,11.572-9.24,12.941-13.012c1.367-3.77,1.189-11.051,3.42-12.844
		C89.652,29.53,90.888,29.53,92.052,29.53 M92.052,25.53c-1.424,0-3.808,0-5.927,1.705c-2.578,2.074-3.143,5.867-3.74,9.883
		c-0.264,1.779-0.537,3.619-0.934,4.713c-0.893,2.457-7.412,9.178-10.838,10.736c-4.361,1.984-9.414,6.93-16.271,15.947
		c-1.684-0.299-3.42-0.449-5.182-0.449h-7.178c-11.094,0-19.785,5.812-19.785,13.234v35.367c0,7.418,8.691,13.23,19.785,13.23h7.178
		c1.045,0,2.096-0.055,3.133-0.16c1.543,0.172,2.932,0.783,4.967,1.676c4.857,2.135,11.512,5.057,26.801,5.057
		c11.3,0,21.849-0.803,21.935-0.811c0.182-0.018,0.361-0.047,0.539-0.09c9.293-2.184,15.023-5.768,17.029-10.65
		c0.848-2.07,0.889-4.135,0.531-5.879c2.812-1.568,4.139-3.682,4.762-5.352c0.33-0.879,1.678-5.178-0.908-10.904
		c2.508-2.539,3.23-5.184,3.357-7.102c0.236-3.604-1.398-6.826-2.908-8.988c3.457-3.555,3.436-9.377,3.398-10.471l0.002-0.002
		c-0.189-5.113-3.369-8.996-8.951-10.934c-3.539-1.227-7.037-1.309-7.662-1.314l-18.174-0.477c-0.035,0-0.07,0-0.105,0
		c-0.123,0-0.248,0.006-0.373,0.018c-0.287,0.027-0.67,0.043-1.023,0.043c-0.268,0-0.521,0.002-0.766,0.006
		c-0.191,0.002-0.377,0.004-0.555,0.004c-0.246,0-0.406-0.006-0.51-0.012c-0.076-0.092-0.193-0.248-0.35-0.502
		c0.076-0.488,0.717-1.77,2.133-3.229c9.17-7.127,9.684-17.545,9.1-20.986c-0.014-0.08-0.029-0.16-0.047-0.24
		C102.489,29.927,98.296,25.53,92.052,25.53L92.052,25.53z"/>
</g>
</svg>
