<?xml version="1.0" encoding="utf-8"?>
<!-- Generator: Adobe Illustrator 16.0.3, SVG Export Plug-In . SVG Version: 6.00 Build 0)  -->
<!DOCTYPE svg PUBLIC "-//W3C//DTD SVG 1.1//EN" "http://www.w3.org/Graphics/SVG/1.1/DTD/svg11.dtd">
<svg version="1.1" id="Layer_1" xmlns="http://www.w3.org/2000/svg" xmlns:xlink="http://www.w3.org/1999/xlink" x="0px" y="0px"
	 width="158px" height="148px" viewBox="0 0 158 148" enable-background="new 0 0 158 148" xml:space="preserve">
<g>
	<path fill="#FFFFFF" d="M129.464,62.57c-0.001-0.041-0.001-0.081-0.006-0.122c-0.004-0.041-0.012-0.08-0.019-0.121
		c-0.009-0.051-0.018-0.101-0.029-0.15c-0.009-0.036-0.017-0.071-0.026-0.106c-0.013-0.039-0.028-0.076-0.043-0.115
		c-0.019-0.051-0.038-0.102-0.062-0.15c-0.014-0.03-0.026-0.062-0.042-0.092c-0.02-0.036-0.044-0.071-0.065-0.107
		c-0.03-0.049-0.062-0.096-0.096-0.142c-0.016-0.021-0.025-0.044-0.042-0.064c-0.005-0.007-0.012-0.011-0.017-0.017
		c-0.024-0.03-0.053-0.057-0.079-0.085c-0.04-0.044-0.082-0.085-0.126-0.124c-0.028-0.026-0.055-0.055-0.084-0.078
		c-0.008-0.007-0.013-0.015-0.021-0.021L79.696,22.515c-0.731-0.576-1.765-0.57-2.49,0.014L29.274,61.089
		c-0.006,0.005-0.01,0.011-0.015,0.015c-0.027,0.022-0.052,0.05-0.078,0.074c-0.044,0.041-0.086,0.083-0.127,0.127
		c-0.026,0.03-0.057,0.058-0.082,0.089c-0.004,0.004-0.008,0.007-0.012,0.012c-0.016,0.021-0.025,0.043-0.041,0.063
		c-0.034,0.047-0.065,0.095-0.096,0.145c-0.022,0.038-0.048,0.073-0.068,0.111c-0.015,0.028-0.025,0.058-0.039,0.086
		c-0.022,0.05-0.041,0.101-0.061,0.152c-0.015,0.04-0.032,0.079-0.044,0.12c-0.01,0.033-0.017,0.066-0.024,0.101
		c-0.012,0.05-0.02,0.101-0.028,0.151c-0.007,0.042-0.017,0.083-0.021,0.126c-0.003,0.039-0.002,0.077-0.004,0.116
		c-0.001,0.024-0.007,0.046-0.007,0.07v61.266c0,0.026,0.007,0.052,0.008,0.078c0.003,0.071,0.011,0.141,0.021,0.211
		c0.009,0.062,0.019,0.123,0.033,0.184c0.015,0.062,0.036,0.124,0.058,0.186c0.022,0.063,0.045,0.126,0.073,0.187
		c0.025,0.055,0.056,0.106,0.086,0.158c0.037,0.063,0.075,0.125,0.119,0.184c0.015,0.021,0.024,0.043,0.041,0.063
		c0.019,0.023,0.042,0.039,0.062,0.062c0.062,0.069,0.127,0.135,0.197,0.195c0.041,0.035,0.081,0.071,0.125,0.103
		c0.071,0.053,0.148,0.098,0.228,0.141c0.045,0.024,0.087,0.052,0.134,0.072c0.093,0.042,0.19,0.071,0.29,0.099
		c0.035,0.01,0.068,0.025,0.104,0.033c0.136,0.029,0.276,0.046,0.421,0.046h96.943c1.104,0,2-0.896,2-2V62.647
		C129.472,62.621,129.465,62.597,129.464,62.57z M32.528,66.785l33.216,26.326l-33.216,26.635V66.785z M68.96,95.66l8.979,7.116
		c0.364,0.289,0.803,0.434,1.242,0.434c0.441,0,0.883-0.146,1.248-0.438l9.657-7.712l32.748,26.853H36.22L68.96,95.66z
		 M93.284,92.508l32.188-25.704V118.9L93.284,92.508z M78.474,26.642l45.778,36.018L79.177,98.653L33.733,62.637L78.474,26.642z"/>
	<path fill="#FFFFFF" d="M105.389,82.233c-1.104,0-2-0.895-2-2V57.062h-48.92v22.07c0,1.104-0.896,2-2,2s-2-0.896-2-2v-24.07
		c0-1.105,0.896-2,2-2h52.92c1.104,0,2,0.895,2,2v25.172C107.389,81.339,106.493,82.233,105.389,82.233z"/>
	<rect x="61.474" y="65.722" fill="#FFFFFF" width="34.729" height="2.199"/>
	<rect x="61.474" y="71.937" fill="#FFFFFF" width="34.729" height="2.199"/>
</g>
</svg>
