<?xml version="1.0" encoding="utf-8"?>
<!-- Generator: Adobe Illustrator 16.0.3, SVG Export Plug-In . SVG Version: 6.00 Build 0)  -->
<!DOCTYPE svg PUBLIC "-//W3C//DTD SVG 1.1//EN" "http://www.w3.org/Graphics/SVG/1.1/DTD/svg11.dtd">
<svg version="1.1" id="Layer_1" xmlns="http://www.w3.org/2000/svg" xmlns:xlink="http://www.w3.org/1999/xlink" x="0px" y="0px"
	 width="126px" height="152px" viewBox="0 0 126 152" enable-background="new 0 0 126 152" xml:space="preserve">
<g>
	<path fill="#FFFFFF" d="M95.842,26.109h-3.149v-1.895c0-4.008-3.261-7.268-7.269-7.268c-4.008,0-7.269,3.26-7.269,7.268v1.895
		h-7.887v-1.895c0-4.008-3.26-7.268-7.268-7.268c-4.008,0-7.269,3.26-7.269,7.268v1.895h-7.888v-1.895
		c0-4.008-3.26-7.268-7.268-7.268s-7.268,3.26-7.268,7.268v1.895h-3.147c-5.083,0-9.217,4.133-9.217,9.215v90.514
		c0,5.082,4.135,9.215,9.217,9.215h65.683c5.082,0,9.216-4.133,9.216-9.215V35.324C105.058,30.242,100.924,26.109,95.842,26.109z
		 M82.155,24.215c0-1.803,1.466-3.268,3.269-3.268c1.803,0,3.269,1.465,3.269,3.268v1.895v2v3.893c0,1.803-1.466,3.268-3.269,3.268
		c-1.802,0-3.269-1.465-3.269-3.268v-3.893v-2V24.215z M59.73,24.215c0-1.803,1.466-3.268,3.269-3.268
		c1.802,0,3.268,1.465,3.268,3.268v1.895v2v3.893c0,1.803-1.466,3.268-3.268,3.268c-1.803,0-3.269-1.465-3.269-3.268v-3.893v-2
		V24.215z M37.307,24.215c0-1.803,1.466-3.268,3.268-3.268s3.268,1.465,3.268,3.268v1.895v2v3.893c0,1.803-1.466,3.268-3.268,3.268
		s-3.268-1.465-3.268-3.268v-3.893v-2V24.215z M101.058,125.838c0,2.875-2.34,5.215-5.216,5.215H30.159
		c-2.877,0-5.217-2.34-5.217-5.215V35.324c0-2.875,2.34-5.215,5.217-5.215h3.147v1.893c0,4.008,3.26,7.268,7.268,7.268
		s7.268-3.26,7.268-7.268v-1.893h7.888v1.893c0,4.008,3.261,7.268,7.269,7.268c4.008,0,7.268-3.26,7.268-7.268v-1.893h7.887v1.893
		c0,4.008,3.261,7.268,7.269,7.268c4.008,0,7.269-3.26,7.269-7.268v-1.893h3.149c2.876,0,5.216,2.34,5.216,5.215V125.838z"/>
	<rect x="47.594" y="55.588" fill="#FFFFFF" width="44.072" height="2.199"/>
	<rect x="34.646" y="55.588" fill="#FFFFFF" width="4.849" height="2.199"/>
	<rect x="47.594" y="68.787" fill="#FFFFFF" width="44.072" height="2.199"/>
	<rect x="34.646" y="68.787" fill="#FFFFFF" width="4.849" height="2.199"/>
	<rect x="47.594" y="81.986" fill="#FFFFFF" width="44.072" height="2.199"/>
	<rect x="34.646" y="81.986" fill="#FFFFFF" width="4.849" height="2.199"/>
	<rect x="47.594" y="95.186" fill="#FFFFFF" width="44.072" height="2.199"/>
	<rect x="34.646" y="95.186" fill="#FFFFFF" width="4.849" height="2.199"/>
	<rect x="47.594" y="108.383" fill="#FFFFFF" width="44.072" height="2.199"/>
	<rect x="34.646" y="108.383" fill="#FFFFFF" width="4.849" height="2.199"/>
</g>
</svg>
