<?xml version="1.0" encoding="utf-8"?>
<!-- Generator: Adobe Illustrator 16.0.3, SVG Export Plug-In . SVG Version: 6.00 Build 0)  -->
<!DOCTYPE svg PUBLIC "-//W3C//DTD SVG 1.1//EN" "http://www.w3.org/Graphics/SVG/1.1/DTD/svg11.dtd">
<svg version="1.1" id="Layer_1" xmlns="http://www.w3.org/2000/svg" xmlns:xlink="http://www.w3.org/1999/xlink" x="0px" y="0px"
	 width="126px" height="152px" viewBox="0 0 126 152" enable-background="new 0 0 126 152" xml:space="preserve">
<g>
	<g>
		<path d="M95.842,135.053H30.159c-5.083,0-9.217-4.133-9.217-9.215V35.324c0-5.082,4.135-9.215,9.217-9.215h7.147v5.893
			c0,1.803,1.466,3.268,3.268,3.268s3.268-1.465,3.268-3.268v-5.893H59.73v5.893c0,1.803,1.466,3.268,3.269,3.268
			c1.802,0,3.268-1.465,3.268-3.268v-5.893h15.887v5.893c0,1.803,1.466,3.268,3.269,3.268c1.803,0,3.269-1.465,3.269-3.268v-5.893
			h7.149c5.082,0,9.216,4.133,9.216,9.215v90.514C105.058,130.92,100.924,135.053,95.842,135.053z M30.159,30.109
			c-2.877,0-5.217,2.34-5.217,5.215v90.514c0,2.875,2.34,5.215,5.217,5.215h65.683c2.876,0,5.216-2.34,5.216-5.215V35.324
			c0-2.875-2.34-5.215-5.216-5.215h-3.149v1.893c0,4.008-3.261,7.268-7.269,7.268c-4.008,0-7.269-3.26-7.269-7.268v-1.893h-7.887
			v1.893c0,4.008-3.26,7.268-7.268,7.268c-4.008,0-7.269-3.26-7.269-7.268v-1.893h-7.888v1.893c0,4.008-3.26,7.268-7.268,7.268
			s-7.268-3.26-7.268-7.268v-1.893H30.159z"/>
		<path d="M92.692,28.109h-4v-3.895c0-1.803-1.466-3.268-3.269-3.268c-1.802,0-3.269,1.465-3.269,3.268v3.895h-4v-3.895
			c0-4.008,3.261-7.268,7.269-7.268c4.008,0,7.269,3.26,7.269,7.268V28.109z"/>
		<path d="M70.268,28.109h-4v-3.895c0-1.803-1.466-3.268-3.268-3.268c-1.803,0-3.269,1.465-3.269,3.268v3.895h-4v-3.895
			c0-4.008,3.261-7.268,7.269-7.268c4.008,0,7.268,3.26,7.268,7.268V28.109z"/>
		<path d="M47.843,28.109h-4v-3.895c0-1.803-1.466-3.268-3.268-3.268s-3.268,1.465-3.268,3.268v3.895h-4v-3.895
			c0-4.008,3.26-7.268,7.268-7.268s7.268,3.26,7.268,7.268V28.109z"/>
	</g>
	<rect x="47.594" y="55.588" width="44.072" height="2.199"/>
	<rect x="34.646" y="55.588" width="4.849" height="2.199"/>
	<rect x="47.594" y="68.787" width="44.072" height="2.199"/>
	<rect x="34.646" y="68.787" width="4.849" height="2.199"/>
	<rect x="47.594" y="81.986" width="44.072" height="2.199"/>
	<rect x="34.646" y="81.986" width="4.849" height="2.199"/>
	<rect x="47.594" y="95.186" width="44.072" height="2.199"/>
	<rect x="34.646" y="95.186" width="4.849" height="2.199"/>
	<rect x="47.594" y="108.383" width="44.072" height="2.199"/>
	<rect x="34.646" y="108.383" width="4.849" height="2.199"/>
</g>
</svg>
