<?xml version="1.0" encoding="utf-8"?>
<!-- Generator: Adobe Illustrator 16.0.3, SVG Export Plug-In . SVG Version: 6.00 Build 0)  -->
<!DOCTYPE svg PUBLIC "-//W3C//DTD SVG 1.1//EN" "http://www.w3.org/Graphics/SVG/1.1/DTD/svg11.dtd">
<svg version="1.1" id="Layer_1" xmlns="http://www.w3.org/2000/svg" xmlns:xlink="http://www.w3.org/1999/xlink" x="0px" y="0px"
	 width="130px" height="126px" viewBox="0 0 130 126" enable-background="new 0 0 130 126" xml:space="preserve">
<g>
	<path d="M65.001,112.234c-27.148,0-49.234-22.088-49.234-49.234c0-27.148,22.086-49.234,49.234-49.234
		c27.147,0,49.232,22.086,49.232,49.234C114.233,90.146,92.148,112.234,65.001,112.234z M65.001,17.766
		c-24.942,0-45.234,20.293-45.234,45.234s20.292,45.234,45.234,45.234c24.941,0,45.232-20.293,45.232-45.234
		S89.942,17.766,65.001,17.766z"/>
	<path d="M54.434,85.113c-0.348,0-0.695-0.092-1.006-0.271c-0.615-0.357-0.994-1.018-0.994-1.729v-38.93
		c0-0.711,0.379-1.371,0.995-1.729c0.615-0.357,1.375-0.361,1.994-0.01L89.646,61.91c0.625,0.355,1.011,1.02,1.011,1.738
		s-0.386,1.383-1.011,1.738L55.422,84.852C55.116,85.025,54.774,85.113,54.434,85.113z M56.434,47.623v32.051l28.178-16.025
		L56.434,47.623z"/>
</g>
</svg>
